<svg width="34" height="24" viewBox="0 0 34 24" fill="none" xmlns="http://www.w3.org/2000/svg">
<path d="M17.2109 0.575195C9.84079 0.575195 3.54675 5.28163 0.996704 11.9251C3.54675 18.5686 9.84079 23.275 17.2109 23.275C24.5809 23.275 30.875 18.5686 33.425 11.9251C30.875 5.28163 24.5809 0.575195 17.2109 0.575195ZM17.2109 19.4917C13.1426 19.4917 9.84079 16.1019 9.84079 11.9251C9.84079 7.74834 13.1426 4.3585 17.2109 4.3585C21.2792 4.3585 24.5809 7.74834 24.5809 11.9251C24.5809 16.1019 21.2792 19.4917 17.2109 19.4917ZM17.2109 7.38514C14.764 7.38514 12.7888 9.413 12.7888 11.9251C12.7888 14.4372 14.764 16.4651 17.2109 16.4651C19.6577 16.4651 21.6329 14.4372 21.6329 11.9251C21.6329 9.413 19.6577 7.38514 17.2109 7.38514Z" fill="white"/>
</svg>
